<?xml version="1.0" encoding="UTF-8"?>
<svg id="Capa_1" xmlns="http://www.w3.org/2000/svg" version="1.1" viewBox="0 0 1080 1080">
  <!-- Generator: Adobe Illustrator 29.1.0, SVG Export Plug-In . SVG Version: 2.1.0 Build 142)  -->
  <path d="M644.88,110.82c-3.38,3.63-7.74,4.44-10.97,8.54-12.73,16.17,6.01,37.51,22.79,23.39,4.73-3.98,5.54-13.74,8.96-16.03l28-5.53-31.7,58.53c33.05-10.38,52.5,13.57,53.7,44.47.55,14.04-3.82,27.36-3.16,40.98l35.86,40.97.18,2.85c-3.85,1.09-7.67.93-11.59,1.24-1.8.15-3.55-.99-3.03,1.8,5.21,5.35,9.82,11.69,13.61,18.1,2.42,4.09,19.65,38.27,18.08,39.84l-14.62-3.65c2.18,15.18,5.96,30.22,4.86,45.72-2.77,11.69-1.4,27.44-3.91,38.77-2.98,13.46-12.79-11.54-16.8-7.67.07,30.05-4.61,57.39-15.27,85.36-3.92,10.29-14.25,36.94-19.59,45.05-1.01,1.53-2.03,2.93-4.16,2.53l-3.69-23.74c-.24-1.34-1.61-.79-2.45-.07-2.03,1.75-10.83,20.75-13.64,25.39-17.35,28.56-41.98,52.55-65.01,76.47-2.67.51-1.81-1.23-1.86-3.07-.1-3.49,1.3-6.46,1.31-9.7,0-1.84.78-3.58-1.86-3.07l-37.84,37.79-4.85-10.96c-11.09,11.71-22.31,24.71-37.72,30.51-14.81-6.59-26.5-18.23-36.71-30.5-3.84-1.58-2.1,10.98-4.86,10.94l-37.96-37.63-2.91.48,2.45,15.22-4.32-1.16c-26.05-27.66-50.46-53.38-69.49-86.62-1.38-2.41-6.14-14.1-6.82-14.53-.75-.47-2.42.01-3.51-.14l-3.02,22c-1.12,1.27-1.56,1.65-3.13.61-2.04-1.35-17.97-39.13-20.07-44.57-7.89-20.49-13.56-42.03-15.25-64.02-.47-6.13,1.2-16.69-.18-21.78-.2-.72-1.46-2.55-2.27-1.4l-9.92,12.64-3.57-.36-4.8-41.55c-.09-10.05.02-20.38,1.33-30.36.48-3.64,5.97-16.7.75-16.38-7.34.45-16.7,11.01-9.05-6.56,7.59-17.42,16.59-34.59,28.91-49.15l-14.63-1.84.2-2.84,36.17-41.93c-1.72-18.71-5.7-36.51-1.67-55.29,5.54-25.84,28.49-36.75,53.11-29.22l-34.14-58.53,28.43,5.1c3.19,1.84,3.24,6.45,5.05,9.58,18.71,32.35,50.01-10.87,16.47-24.04.64-6.67-3.58-42.45-.03-45.02,2.44-1.33,4.57.04,6.84.66,4.09,1.11,39.31,16.11,40.83,17.74,1.88,2-.75,10.76.25,15.58,5.23,25.2,44.59,21.69,38.2-8.95-1.31-6.27-7.95-10.62-6.14-15.72l31.01-37.33c1.93-2.13,5.12-2.32,7.75-1.52,5.42,1.65,26.57,33.71,32.92,39.16l.63,2.47c-30.41,42.73,39.33,56.85,30.92,5.88l42.47-17.89,6.13-.58v44.52ZM318.02,387.68c-.99,9.41.73,20.3,0,29.88,2.64.18,4.47-2.54,6.13-4.24,8.79-8.99,11.88-25.81,17.22-37.67,8.27-18.35,21.28-38.15,34.57-53.24,6.05-6.88,20.79-17.98,24.87-23.91,2.22-3.23,3.89-12.39,6.04-17.13,1.15-2.53,7.67-12.43,7.53-13.18-.45-2.5-2.18-1.09-3.23-.85-4.49,1.02-9.3,5.66-13.84,4.48,9.41-10.41,21.41-18.1,34.13-23.8l-4.29-1.25-39.6,9.2c30.9-24.57,69.9-38.02,109.71-32.89l2.22-2.47c-7.59-13.25-21.75-19.15-36.32-12.83-1.71-1.57,7.38-7.48,8.45-8,20.55-10,41.05,4.77,56.76,16.52,7.45-3.6,13.22-9.65,20.76-13.4,15.29-7.6,34.28-10.58,45.74,4.87-14.78-6.05-30.89-.53-36.59,14.64,11.27,1.07,23.26-.96,34.74.03,26.53,2.28,56.63,17.61,77.46,33.53.19.93-1.13.75-1.79.58-13.34-3.42-27.71-11.17-42.1-9.13,7.2,4.61,15.03,8.3,21.85,13.52,1.67,1.28,10.7,8.81,11.06,9.68,1.77,4.23-8.6-1.84-9.97-2.23-1.95-.54-3.81-1.11-5.86-.83-.71.64,6.59,12.9,7.52,15.03,2.04,4.66,3.28,11.65,5.37,15.36,2.05,3.65,16.24,14.85,20.66,19.59,16.46,17.68,30.92,39.69,40.67,61.78,3.61,8.19,5.68,18.13,9.71,25.66,2.1,3.92,7.8,12.75,12.42,12.59v-28.66c0-13.63-12.1-37.99-20.72-48.8-.24-3.18.48-1.28,2.09-.87,4.15,1.05,9.03,3.74,13.13,3.97,1.67.09,2.36.13,1.81-1.82-.76-2.66-6.05-10.07-8-12.74-10.38-14.17-24.77-24.46-39.52-33.66-.51-2.77,1.21-1.66,3.02-1.81,4.4-.35,22.98,3.28,23.8-.63l-20.75-24.44c3.49-19.41,13.68-64.51-9.97-74.09-17.81-7.21-35.05,10.73-47.72,20.93-13.69-10.47-24.74-24.6-40.43-32.78-9.54-4.98-29.52-7.95-40-5.79-11.41,2.35-22.35,19.99-28.33,28.99-5.02-11.46-18.09-29.1-31.71-29.37-8.03-.16-27.8,2.24-34.8,5.54-14.93,7.04-28.46,22.89-40.98,33.5-12.67-9.76-30.42-27.81-48.02-21.26-23.47,8.73-14.45,55.62-9.97,74.16l-20.5,24.62c.93,4.51,22.03-.05,26.22.63l.6,2.42c-13.16,6.51-27.1,17.44-36.54,28.72-1.02,1.22-14.27,18.45-10.39,18.88l16.45-4.29c-9.68,13.35-18.98,32.25-20.73,48.79ZM548.96,241.15c-4.05,3.61-14.61,16.94-20.45,16.65-6.08-.29-21.42-19.6-24.27-19.34-10.16,4.63-19.48,10.94-29.67,15.49-17.11,7.65-32.78,8.61-45.53,23.99-10.97,13.23-8.8,20.87-13.11,35.67-3.29,11.3-17.9,35.19-11.4,46.09,4.04,6.76,16.04,3.63,20.5,11.21,9.93,16.87,9.67,41.11,15.57,58.83,7.16,21.5,15.59,37.95,21.87,61.07.83,3.05,7.55,20.17,11.01,19.42l4.91-7.3c22.19,35.12,78.65,34.82,101.24,0l3.06,7.31c4.19,3.13,12.65-18.89,13.18-21.67.42-2.21-.91-4.21-.46-6.41,1.13-5.54,10.33-18.81,12.3-25.54,7.32-24.94,11.97-54.7,20.67-78.12,1-2.69.71-6.59,2.05-8.92,2.59-4.51,18.82-2.95,22.84-10.09,6.73-11.96-9.72-36.73-12.73-49.19-3.57-14.82-1.88-21.42-13.34-34.23s-25.64-13.94-40.47-20.51c-11.3-5.01-22.07-11.46-33.26-16.73-1.45-.24-3.48,1.4-4.51,2.32ZM370.48,428.52c-5.2-23.93-1.49-48.11,1.19-71.95-8.66,7.71-17.8,19.42-23.37,29.67-13.3,24.5-11.92,76.2-6.75,103.52,1.1,5.81,5.44,24.05,8.35,28.24,1,1.45,1.42,2.43,3.48,2l9.15-46.33c2.87,6.35,2.16,14.94,3.41,22.2,6.99,40.71,27.7,80.16,55.75,110.13l2.44-1.26-6.72-39.61c15.57,27.58,32.48,55.56,56.12,76.8,5.27-6.53,2.26-16,3.05-23.74l2.41-18.91c4.05,17.52,10.39,34.81,20.24,49.89,3.87,5.93,22.8,29.14,29.16,29.33,4.39.13,18.13-13.82,21.38-17.61,14.02-16.31,23.97-39.34,28.03-60.4,1.71-1.82,2.21.13,2.43,1.81.68,5.35.45,38.25,2.45,39.65,4.61-1.67,9.39-7.24,12.81-10.95,18.25-19.86,32.09-43.63,45.11-67.09.24,12.4-6.76,27.66-6.75,39.61,0,1.84-.8,3.57,1.85,3.06,33.29-36.34,56.66-84.08,57.96-134.14,1.76-.29,1.65,2.11,2.06,3.39,4.37,13.47,4.51,29.03,8.31,41.77.64,2.14.25,2.87,3.01,2.39,11.66-29.09,14.29-62.1,12.2-93.28-1.69-25.16-7.19-39.55-22.65-59.06-1.51-1.9-8.88-12.36-11.48-9.85,5.13,23.24,5.72,47.14,2.42,70.72l-4.24-26.84-3.05-4.86c3.43,47.08-36.06,79.38-40.27,124.39-2.12.29-1.15-2.77-1.21-4.25-.21-5.29-.43-11.95-.05-17.14,2.28-31.48,21.59-61.08,14.67-93.25l-4.54,1.56-25.29,45.88c11.25,41.8.51,85.56-20.77,122.09-.95.18-.72-1.09-.61-1.82,3.23-22.45,10.12-38.88,7.37-63.47-.2-1.82-.25-3.76-2.47-4.22-3.27,17.24-8.85,30.81-19.02,45.02-22.74,31.78-45.59,45.54-57.81,86.13-.52,1.73.76,2.16-2.44,1.79-3.8-18.73-14.2-34.5-25.68-49.34-14.52-18.77-36.92-38.49-45.31-60.8-2.84-7.56-2.69-16.86-7.7-22.79-3.84,13.27-1.23,30.35.97,44.16,1.23,7.73,3.78,15.28,5.2,22.86.24,1.26,1.61,3.99-.66,3.71-14.12-28.36-27.06-60.87-25.62-93.28.47-10.59,4.31-20.98,4.6-31.41l-25.64-45.72c-1.74-1.12-3.67-2.22-4.41.45-.98,3.52-.55,20.88-.15,25.43,1.43,16.05,9.95,34.05,13.04,50.38,2.37,12.56,3.26,25.28,2.79,38.05-1.75.29-1.7-2.15-2.05-3.41-1.81-6.5-2.49-13.02-4.62-19.79-8.5-27.06-28.32-49.37-33.21-77.78-.87-5.05-1.08-21.24-2.17-23.44-.28-.56-1.57-1.54-1.84-1.2l-4.88,32.92ZM527.81,579.76c-3.08-2.89-8.21-28.68-12.17-33.58-1.92-2.37-21.09-7.54-21.99-6.65,6.09,18.29,17.81,34.37,24.96,52.48,4.18,10.59,7.81,21.5,9.2,32.89,4.03-3.83,3.81-11.53,5.48-17.07,7.32-24.19,21.43-45.13,31.09-68.3l-21.65,5.18c-2.86,2.64-9.32,27.33-12.38,33.33-.49.96-.38,3.74-2.53,1.73Z"/>
  <path d="M566.83,837.1c6.89-7.27,10.27-19.32,14.8-28.49,8.67-17.57,26.91-61.11,52.61-48.08,18.37,9.32,10.48,52.27,10.59,69.91.14,22.48,3.21,45.72,3.76,68.2.34,14.08-.65,25.3-16.24,30.19-17.61,5.53-18.39-18.04-19.16-30.15-.45-7-.03-54.89-2.47-56.7-15.47,13.53-30.32,66.48-53.09,67.14-12.11.35-16.17-17.62-18.26-26.88-8.97-39.73-5.58-81.51-7.92-121.97-2.85-.62-1.96.37-2.73,1.57-17.4,27.12-25.74,80.53-30.04,112.62-1.15,8.58-.55,22.59-2.86,30.07-2.28,7.37-21.58,12.89-27.84,7.38-.7-31.73,2.95-63.49,8.94-94.57,5.38-27.91,18.75-89.53,48.98-99.82,9.71-3.31,21.91-3.16,29.26,5.01,13.87,15.44,9.71,67.32,10.39,88.4.27,8.32,2.38,17.43,1.28,26.17Z"/>
  <path d="M207.04,741.95c-2.06-2.84,13.28-14.68,15.95-16.34,30.49-19.04,93.91-22.89,125.98-6.66,10.87,5.5,22.17,16.08,19.98,29.44-1.5,9.15-20.84,33.47-27.28,42.23-24.05,32.71-50.94,63.35-73.63,97.09-.08,2.15,8.63.61,10.17.44,26.1-2.88,52.99-13.99,79.46-15.67,6.42-.41,28.77-2.67,20.68,8.49-4.65,6.41-29.84,16.25-38.08,19.24-25.22,9.13-75.75,24.48-100.98,16.23-37.98-12.42-9.48-52.37,4.56-72.4,13.24-18.89,29.18-37.02,44.27-54.52,9.11-10.57,33.13-32.6,38.23-43.49s-14.35-8.47-20.99-7.57c-32.83,4.42-66.08,25.9-98.32,3.49Z"/>
  <path d="M848.46,855.48l-48.16,5.93c-1.59,15.27-.16,30.53,2,45.61-.6,2.64-19.49,6.53-22.68,3.29s-7.09-25.62-7.74-31.29c-4.52-39.52,6.4-127.43,32.8-158.37,11.62-13.61,32.39-17.8,45.76-4.35,19.73,19.85,19.91,85.63,24.07,113.75,3.83,25.92,15.36,57.94,15.57,83.32.02,1.99-.18,2.99-1.88,4.19-23.75-12.47-35.48-36.46-39.74-62.09ZM842.46,826.12c-4.37-23.91-5.14-49.77-10.09-73.45-5.14-24.58-17.35-4.61-21.55,8.28-6.82,20.97-7.35,45.76-9.84,67.62l41.47-2.45Z"/>
  <path d="M682.69,817.6l4.93,68.71c-.52,2.2-15.74,4.55-18.36,2.64-3.13-1.84-3.05-22.65-3.67-28.03-2.53-21.88-7.19-43.88-8.49-65.9-.93-15.74.17-31.38-1.36-47.43-1.1-11.61-7.24-17.96,4.43-27.54,17.01-13.95,80.52-27.81,96.35-8.61,10.35,12.56-5.07,33.85-12.57,44.82-11.87,17.37-26.27,32.07-42.94,44.86,10.34,9.66,23.33,14.91,34.69,23.83,30.54,23.98,42.05,47.3,4.21,72.41-18.87,12.52-48.24,24.04-71.1,21.32-18.66-2.22-13.87-13.14,1.68-17.56,18.16-5.16,39.94-12.97,54.25-26.25,13.6-12.62,2.31-21.35-7.25-31.71l-34.78-25.57ZM681.47,791.97c2.22.5,2.39-.67,3.44-2.03,10.55-13.63,18.9-22.04,30.11-34.53,5.01-5.58,19.64-21.12,17.47-28.42-5.16-11.11-45.7-3.99-49.69,2.3-1.3,2.05-2.4,12.51-2.61,15.68-1.02,15.7,1.95,31.33,1.28,47Z"/>
  <path d="M394.5,700.76c8.8-2.57,27.71.02,29.55,11.4,1.92,11.85-5.03,20.13-8.49,30.39-10.55,31.24-20.34,78.03-5.06,108.79,3.41,6.86,4.25,7.36,7.76,0,10.8-22.64,12.58-65.41,17.23-91.31,1.33-7.39,3.51-24.81,8.09-29.72,6.36-6.81,15.83-8.84,23.27-2.42,6.31,5.45,5.32,11.45,4.51,19.21-2.19,20.99-9.75,46.51-13.92,67.8-4.38,22.36-6.4,46.67-13.45,68.26-6.15,18.84-14.85,38.9-38.46,31.67-8.87-2.72-15.99-25.29-18.6-33.85-14.03-46.16-17.04-97.97-7.57-145.38,1.43-7.16,8.04-32.8,15.14-34.87Z"/>
  <path d="M534.8,937.41c5.31-1.42,22.46,3.99,27.17,7.6,28.55,21.87,4.59,59.46-21.14,70.39-28.61,12.15-40.21-21.42-31.93-44.12,3.08-8.43,17.15-31.53,25.9-33.87ZM543.32,949.6c-20.1,3.3-35.03,36.02-24.58,53.27,5.46,9.02,14.64,4.17,21.64-.12,8.3-5.08,25.35-23.1,27.17-32.68,2.23-11.71-13.24-22.28-24.23-20.47Z"/>
  <path d="M589.99,1017c-.34,1.22-3.64,3.67-5.4,3.02-1.99-.61-2.93-5.88-3.14-7.9-1.46-14.53-1.08-31.77.01-46.33.53-7.09.04-16.52,8.89-13.79,6.45,1.98,10.32,33.21,14.16,40.71.49.95.38,3.76,2.53,1.73,2.27-2.14.87-21.45,1.26-26.2.96-11.95,5.59-26.64,14.6-34.78-.72,12.35-2.86,24.83-3.63,37.21-.8,12.76.11,26.19-1.24,39-.43,4.07-1.42,12.75-7.34,11.1-8.26-2.31-12.43-20.43-17.24-26.74-1.06-1.39-1.27-2.49-3.46-2.03-1.19,6.64,1.61,19.23,0,25Z"/>
  <path d="M474.13,1004.8c1.96,6.28,20.45-2.38,20.7,2.43.29,5.57-21.89,17.92-27.74,5.82-6.33-13.1.38-37.84,1-52.13.41-9.32-4.62-11.43,4.89-18.25,6.8-4.87,26.3-7.96,27.99,2.35.49,2.97-1.36,1.48-3.07,1.8-16.72,3.11-24.23,1.28-20.81,23.29,2.49,3.58,20.32-2.17,20.25,4.19-.09,8.1-19.31,5.69-23.22,10.98v19.51Z"/>
  <path d="M458.23,1011.58l.05,3.57c-7.48,1.56-14.68,3.48-22.49,2.38-7.99-1.12-7.64-5.75-8.06-12.68-1.07-17.39,1.33-53.47,7.41-69.54.71-1.88,1.32-3.09,3.01-4.28,2.02,1.75,3.02,3.97,3.07,6.65.12,6.56-3.29,18-3.73,25.6-.51,8.71-1.33,33.87.32,41.25,1.89,8.48,14.23,4.2,20.42,7.05Z"/>
  <path d="M875.05,680.06c24.63-5.03,25.1,32.82,2.29,30.12-17.26-2.04-17.04-27.11-2.29-30.12ZM875.03,682.48c-12.77,2.92-12.1,24.97,3.39,25.45,20.08.63,17.43-30.21-3.39-25.45Z"/>
  <path d="M605.84,389.5c-2.38,2.68-18-16.4-20.08-18.32s-19.86-16.25-21.37-14.6c.49,31.22,7.89,61.4.41,92.49-5.36,22.3-14.92,39.3-40.29,27.26-4.98-2.36-9.48-4.63-6.57-10.69,3.91-8.14,17.27-19.19,23.04-28.19,14.88-23.17,8.13-47.57,9.94-73,.94-13.2,3.89-21.25,19.22-16.68,10.01,2.98,16.19,15.96,24.72,21,1.55-2.06-4.18-12.21-5.45-14.66-6.62-12.8-15.95-24.27-22.8-36.96-3.19-5.92-18.79-34.98-8.73-38.43,8.98-2.66,14.79,11.61,17.7,18.49,8.74,20.67,25.56,62.85,29.72,83.7.58,2.89.77,5.67.54,8.59Z"/>
  <path d="M483.88,348.02l-36.58,9.79c3.72,8.91,17.96,15.41,26.8,17.69,13.44,3.48,28.61.99,42.17,5.4,5.07,1.65,18.37,7.98,8.54,12.33-21.3,9.44-68.27-8.71-85.47-23.22-4.31-3.64-15.12-14.14-8.25-19.61,4.03-3.21,30.82-11.01,36.33-10.99,4.89.01,15.79,2.8,16.46,8.61Z"/>
  <path d="M511.31,294.85c1.99-.09,6.36,2.32,8.38,3.35,11.31,5.77,26.42,20.98,17.3,34.02-16.53,23.63-53.23-11.34-31.2-33.63,1.37-1.38,3.54-3.66,5.52-3.75Z"/>
  <path d="M690,212.65c-3.88-.36-4.74-4.18-8.8-5.32-9.9-2.77-18.4,13.53-24.92,18.61l-10.1-7.97c9.66-13.11,36.2-28.44,43.81-5.33Z"/>
  <path d="M368.03,212.65c6.4-23.67,34.34-6.79,43.81,5.32l-10.28,7.81c-6.95-5.16-14.34-20.98-24.77-18.41-4.07,1-4.87,4.99-8.75,5.28Z"/>
  <path d="M883.62,688.61c3.43,3.29-2.87,8.6.3,13.11-4.71.96-1.75-8.08-7.34-4.04l-2.41,4.05v-14.63s9.45,1.52,9.45,1.52Z"/>
</svg>