<svg width="512" height="512" viewBox="0 0 512 512" fill="none" xmlns="http://www.w3.org/2000/svg">
<g clip-path="url(#clip0_164_2)">
<path d="M426.667 469.333V42.6667C426.667 31.3508 422.171 20.4983 414.17 12.4968C406.168 4.49523 395.316 0 384 0L128 0L0 128V469.333C0 480.649 4.49523 491.502 12.4968 499.503C20.4983 507.505 31.3508 512 42.6667 512H384C395.316 512 406.168 507.505 414.17 499.503C422.171 491.502 426.667 480.649 426.667 469.333Z" fill="url(#paint0_linear_164_2)"/>
<path d="M426.667 469.333V42.6667C426.667 31.3508 422.171 20.4983 414.17 12.4968C406.168 4.49523 395.316 0 384 0L128 0L0 128V469.333C0 480.649 4.49523 491.502 12.4968 499.503C20.4983 507.505 31.3508 512 42.6667 512H384C395.316 512 406.168 507.505 414.17 499.503C422.171 491.502 426.667 480.649 426.667 469.333Z" fill="url(#paint1_linear_164_2)"/>
<path d="M128 85.3333V0L0 128H85.3333C96.6492 128 107.502 123.505 115.503 115.503C123.505 107.502 128 96.6492 128 85.3333Z" fill="#848484"/>
<path d="M469.333 264.533H196.267C172.702 264.533 153.6 283.636 153.6 307.2V384C153.6 407.564 172.702 426.667 196.267 426.667H469.333C492.897 426.667 512 407.564 512 384V307.2C512 283.636 492.897 264.533 469.333 264.533Z" fill="url(#paint2_linear_164_2)"/>
<path d="M312.149 293.547V307.371L281.429 385.707H312.149V401.067H263.305V387.243L294.025 308.907H263.305V293.547H312.149ZM325.948 401.067V293.547H342.229V401.067H325.948ZM360.004 401.067V293.547H385.493C401.015 293.547 411 303.684 411 319.198V331.793C411 347.307 401.015 357.444 385.493 357.444H376.277V401.067H360.004ZM376.277 342.084H384.725C391.031 342.084 394.709 338.398 394.709 332.1V318.891C394.709 312.593 391.031 308.907 384.725 308.907H376.277V342.084Z" fill="#6A6A6A"/>
</g>
<defs>
<linearGradient id="paint0_linear_164_2" x1="213.333" y1="0" x2="213.333" y2="512" gradientUnits="userSpaceOnUse">
<stop stop-color="#FFC48D"/>
<stop offset="1" stop-color="#FF9A23"/>
</linearGradient>
<linearGradient id="paint1_linear_164_2" x1="213.333" y1="0" x2="213.333" y2="512" gradientUnits="userSpaceOnUse">
<stop stop-color="#236441"/>
<stop offset="0.903475" stop-color="#3B6B6F"/>
<stop offset="1" stop-color="#3B6B6F"/>
</linearGradient>
<linearGradient id="paint2_linear_164_2" x1="332.8" y1="264.533" x2="332.8" y2="426.667" gradientUnits="userSpaceOnUse">
<stop stop-color="#F0F0F0"/>
<stop offset="1" stop-color="#DCDCDC"/>
</linearGradient>
<clipPath id="clip0_164_2">
<rect width="512" height="512" fill="white"/>
</clipPath>
</defs>
</svg>
